<?xml version="1.0" encoding="UTF-8"?>
<!DOCTYPE svg PUBLIC "-//W3C//DTD SVG 1.1//EN" "http://www.w3.org/Graphics/SVG/1.1/DTD/svg11.dtd">
<!-- Creator: CorelDRAW X7 -->
<svg xmlns="http://www.w3.org/2000/svg" xml:space="preserve" width="558px" height="480px" version="1.1" style="shape-rendering:geometricPrecision; text-rendering:geometricPrecision; image-rendering:optimizeQuality; fill-rule:evenodd; clip-rule:evenodd"
viewBox="0 0 558 480"
 xmlns:xlink="http://www.w3.org/1999/xlink">
 <defs>
  <style type="text/css">
   <![CDATA[
    .fil0 {fill:#495678}
   ]]>
  </style>
 </defs>
 <g id="Layer_x0020_1">
  <metadata id="CorelCorpID_0Corel-Layer"/>
  <path class="fil0" d="M295 277l24 -24c5,-5 14,-5 19,0l33 33c12,12 12,30 0,41l-2 3c-11,11 -30,11 -41,0l-33 -33c-5,-6 -5,-15 0,-20zm-281 139l0 25 28 -29c1,-2 2,-3 3,-3 1,-1 3,-1 4,-1 2,0 4,0 5,1 1,2 2,3 2,5 0,2 -1,4 -3,6l-17 16 19 29c2,2 3,3 4,5 0,1 1,3 1,4 0,2 -1,3 -2,4 -1,1 -3,2 -5,2 -2,0 -4,0 -5,-1 -1,-1 -2,-2 -3,-4 -1,-1 -2,-2 -2,-3l-17 -26 -12 11 0 14c0,3 0,5 -2,7 -1,1 -3,2 -5,2 -1,0 -2,0 -3,-1 -2,-1 -2,-1 -3,-3 0,0 -1,-1 -1,-3 0,-1 0,-3 0,-5l0 -52c0,-3 1,-5 2,-6 1,-2 3,-2 5,-2 2,0 4,0 5,2 2,1 2,3 2,6zm104 4l-32 0 0 17 30 0c2,0 4,0 5,1 1,1 1,3 1,4 0,2 0,3 -1,4 -1,1 -3,2 -5,2l-30 0 0 20 33 0c3,0 4,0 6,1 1,1 1,3 1,4 0,2 0,3 -1,4 -2,1 -3,2 -6,2l-38 0c-3,0 -5,-1 -7,-2 -1,-2 -2,-4 -2,-7l0 -53c0,-2 1,-3 1,-5 1,-1 2,-2 3,-2 1,-1 3,-1 5,-1l37 0c3,0 4,0 5,1 2,1 2,3 2,4 0,2 0,3 -2,4 -1,1 -2,2 -5,2zm43 48l-11 -44 0 48c0,3 -1,5 -2,6 -1,1 -3,2 -5,2 -2,0 -3,-1 -4,-2 -1,-1 -2,-3 -2,-6l0 -55c0,-3 1,-6 2,-7 2,-1 4,-1 7,-1l4 0c3,0 5,0 6,1 1,0 2,1 3,2 0,1 1,3 1,6l11 39 10 -39c1,-3 1,-5 2,-6 0,-1 1,-2 2,-2 2,-1 4,-1 6,-1l5 0c2,0 4,0 6,1 2,1 2,4 2,7l0 55c0,3 0,5 -1,6 -2,1 -3,2 -5,2 -2,0 -4,-1 -5,-2 -1,-1 -2,-3 -2,-6l0 -48 -11 44c-1,3 -1,5 -2,7 0,1 -1,2 -2,3 -1,1 -3,2 -5,2 -2,0 -3,0 -5,-1 -1,-1 -2,-2 -2,-3 -1,-1 -1,-2 -2,-4 0,-1 0,-2 -1,-4zm76 -52l28 41 0 -41c0,-3 0,-5 1,-6 2,-2 3,-2 5,-2 2,0 4,0 5,2 1,1 2,3 2,6l0 55c0,6 -3,9 -8,9 -1,0 -2,0 -3,-1 -1,0 -2,-1 -3,-1 -1,-1 -2,-2 -3,-3 0,-1 -1,-2 -2,-3l-27 -41 0 41c0,3 0,5 -1,6 -2,1 -3,2 -5,2 -2,0 -4,-1 -5,-2 -1,-1 -2,-3 -2,-6l0 -54c0,-2 0,-4 1,-6 1,-1 2,-2 3,-3 1,-1 3,-1 4,-1 2,0 3,0 4,0 1,1 1,1 2,2 1,1 2,2 2,3 1,1 2,2 2,3zm100 55l-4 -9 -28 0 -3 9c-2,4 -3,6 -4,7 -1,1 -2,2 -4,2 -2,0 -4,-1 -5,-2 -1,-1 -2,-3 -2,-4 0,-1 0,-2 0,-3 1,-1 1,-3 2,-5l18 -45c0,-1 1,-3 2,-5 0,-2 1,-3 2,-4 1,-2 2,-3 3,-3 2,-1 3,-1 5,-1 2,0 4,0 5,1 1,0 2,1 3,3 1,1 2,2 2,3 1,2 2,4 2,6l19 45c1,3 2,6 2,7 0,2 -1,4 -2,5 -1,1 -3,2 -5,2 -1,0 -2,0 -3,-1 -1,0 -1,-1 -2,-1 0,-1 -1,-2 -2,-3 0,-2 -1,-3 -1,-4zm-28 -20l21 0 -11 -28 -10 28zm68 -35l0 25 27 -29c2,-2 3,-3 4,-3 1,-1 2,-1 4,-1 2,0 3,0 4,1 2,2 2,3 2,5 0,2 -1,4 -3,6l-17 16 20 29c1,2 2,3 3,5 1,1 1,3 1,4 0,2 -1,3 -2,4 -1,1 -3,2 -5,2 -2,0 -3,0 -5,-1 -1,-1 -2,-2 -3,-4 -1,-1 -1,-2 -2,-3l-17 -26 -11 11 0 14c0,3 -1,5 -2,7 -2,1 -4,2 -6,2 -1,0 -2,0 -3,-1 -1,-1 -2,-1 -3,-3 0,0 0,-1 0,-3 -1,-1 -1,-3 -1,-5l0 -52c0,-3 1,-5 2,-6 2,-2 3,-2 5,-2 3,0 4,0 6,2 1,1 2,3 2,6zm104 4l-32 0 0 17 29 0c2,0 4,0 5,1 1,1 2,3 2,4 0,2 -1,3 -2,4 -1,1 -3,2 -5,2l-29 0 0 20 33 0c2,0 4,0 5,1 1,1 2,3 2,4 0,2 -1,3 -2,4 -1,1 -3,2 -5,2l-39 0c-3,0 -5,-1 -6,-2 -2,-2 -2,-4 -2,-7l0 -53c0,-2 0,-3 1,-5 0,-1 1,-2 2,-2 2,-1 3,-1 5,-1l38 0c2,0 4,0 5,1 1,1 1,3 1,4 0,2 0,3 -1,4 -1,1 -3,2 -5,2zm38 29l-5 0 0 22c0,3 -1,5 -2,7 -1,1 -3,2 -5,2 -2,0 -4,-1 -5,-2 -2,-2 -2,-4 -2,-7l0 -54c0,-3 0,-5 2,-6 1,-2 3,-2 6,-2l24 0c3,0 5,0 8,0 2,0 4,1 6,2 2,1 4,2 6,4 1,2 3,4 3,6 1,2 2,4 2,7 0,5 -2,9 -5,13 -3,3 -7,5 -13,6 2,2 5,4 7,6 2,3 5,6 6,8 2,3 3,6 5,8 0,3 1,4 1,5 0,1 0,2 -1,3 0,1 -1,2 -2,2 -1,1 -2,1 -4,1 -1,0 -3,0 -4,-1 -1,-1 -2,-2 -3,-3 0,-1 -1,-3 -3,-5l-5 -9c-3,-4 -4,-7 -6,-8 -2,-2 -3,-3 -5,-4 -1,-1 -4,-1 -6,-1zm8 -30l-13 0 0 20 13 0c3,0 6,-1 8,-1 3,-1 4,-2 6,-3 1,-2 1,-4 1,-6 0,-2 0,-4 -1,-5 -1,-2 -2,-3 -4,-4 -2,0 -5,-1 -10,-1zm-116 -254c13,-13 35,-14 48,0 13,13 13,34 0,47 -13,14 -35,14 -48,0 -13,-13 -13,-34 0,-47zm-107 -107c13,-14 13,-35 0,-48 -13,-13 -34,-13 -48,0 -13,13 -13,34 0,48 13,13 35,13 48,0zm-50 264c-13,13 -13,35 0,48 13,13 34,13 48,0 13,-14 13,-35 0,-48 -13,-13 -35,-13 -48,0zm-107 -107c-13,13 -35,13 -48,0 -13,-13 -13,-35 0,-48 13,-13 35,-13 48,0 13,13 13,35 0,48zm45 -9l23 24c6,5 6,14 0,19l-33 33c-11,11 -29,11 -40,0l-3 -3c-11,-11 -11,-29 0,-40l33 -33c5,-6 14,-6 20,0zm177 -156l2 2c12,12 12,30 0,41 -28,28 -55,55 -83,84 -5,4 -13,4 -18,0 -13,-14 -26,-27 -39,-40 2,3 7,3 10,0l87 -87c11,-11 30,-11 41,0zm-3 124l-23 -24c-6,-5 -6,-14 0,-20l33 -33c11,-11 29,-11 40,0l3 3c11,11 11,29 0,41l-33 33c-5,5 -14,5 -20,0zm-177 156l-2 -3c-12,-11 -12,-29 0,-41 28,-28 55,-55 83,-83 5,-5 13,-5 18,0 13,13 26,26 39,39 -2,-2 -7,-2 -10,0l-87 88c-11,11 -30,11 -41,0zm74 -228l-24 24c-5,5 -14,5 -19,0l-33 -33c-12,-11 -12,-29 0,-41l2 -2c11,-11 30,-11 41,0l33 33c5,5 5,14 0,19zm156 177l-3 3c-11,11 -29,11 -40,0 -28,-28 -56,-55 -84,-83 -5,-5 -5,-13 0,-18 13,-13 26,-26 40,-40 -3,3 -3,8 0,11l87 87c11,11 11,29 0,40zm-280 -179l3 -3c11,-11 29,-11 40,0 28,29 56,56 84,84 5,5 5,13 0,18 -13,13 -26,26 -40,39 3,-3 3,-7 0,-10l-87 -87c-11,-12 -11,-30 0,-41z"/>
 </g>
</svg>
